# xmcd
#
# Track frame offsets:
#	150
#	17046
#	33595
#	55398
#	75417
#	92391
#	115076
#	136333
#	157886
#	187426
#
# Disc length: 2709
#
# Revision: 6
# Processed by: cddbd v1.5.1PL0 Copyright (c) Steve Scherf et al.
# Submitted via: ExactAudioCopy v0.90b4
# Normalized: r5:TRMNUM
#
DISCID=790a930a
DTITLE=Madonna - Music
DYEAR=2000
DGENRE=Pop
TTITLE0=Music
TTITLE1=Impressive Instant
TTITLE2=Runaway Lover
TTITLE3=I Deserve It
TTITLE4=Amazing
TTITLE5=Nobody's Perfect
TTITLE6=Don't Tell Me
TTITLE7=What It Feels Like For A Girl
TTITLE8=Paradise (Not For Me)
TTITLE9=American Pie
EXTD=Suggest Genre of POP
EXTT0=
EXTT1=
EXTT2=
EXTT3=
EXTT4=
EXTT5=
EXTT6=
EXTT7=
EXTT8=
EXTT9=
PLAYORDER=
